<?xml version="1.0" encoding="UTF-8" standalone="no"?>
<!DOCTYPE svg PUBLIC "-//W3C//DTD SVG 1.1//EN" "http://www.w3.org/Graphics/SVG/1.1/DTD/svg11.dtd">
<!-- Created with Vectornator (http://vectornator.io/) -->
<svg height="100%" stroke-miterlimit="10" style="fill-rule:nonzero;clip-rule:evenodd;stroke-linecap:round;stroke-linejoin:round;" version="1.1" viewBox="0 0 1024 998.74" width="100%" xml:space="preserve" xmlns="http://www.w3.org/2000/svg" xmlns:vectornator="http://vectornator.io" xmlns:xlink="http://www.w3.org/1999/xlink">
<defs/>
<g id="無標題" vectornator:layerName="無標題">
<path d="M512 0C229.12 0 0 229.12 0 512C0 738.56 146.56 929.92 350.08 997.76C375.68 1002.24 385.28 986.88 385.28 973.44C385.28 961.28 384.64 920.96 384.64 878.08C256 901.76 222.72 846.72 212.48 817.92C206.72 803.2 181.76 757.76 160 745.6C142.08 736 116.48 712.32 159.36 711.68C199.68 711.04 228.48 748.8 238.08 764.16C284.16 841.6 357.76 819.84 387.2 806.4C391.68 773.12 405.12 750.72 419.84 737.92C305.92 725.12 186.84 680.92 186.84 485.12C186.84 429.44 206.68 383.36 239.32 347.52C234.2 334.72 216.32 282.24 244.44 211.84C244.44 211.84 287.32 198.4 385.24 264.32C469.018 241.28 557.462 241.28 641.24 264.32C739.16 197.76 782.04 211.84 782.04 211.84C810.2 282.24 792.28 334.72 787.16 347.52C819.8 383.36 839.64 428.8 839.64 485.12C839.64 681.6 719.96 725.12 606.04 737.92C624.6 753.92 640.6 784.64 640.6 832.64C640.6 901.12 639.96 956.16 639.96 973.44C639.96 986.88 649.56 1002.88 675.16 997.76C877.44 929.92 1024 737.92 1024 512C1024 229.12 794.88 0 512 0Z" fill="#ffffff" fill-rule="nonzero" opacity="1" stroke="none" vectornator:layerName="path"/>
</g>
</svg>
